<?xml version="1.0" encoding="UTF-8"?>
<svg version="1.1" xmlns="http://www.w3.org/2000/svg" width="84" height="64">
<path d="M0 0 C27.72 0 55.44 0 84 0 C84 21.12 84 42.24 84 64 C56.28 64 28.56 64 0 64 C0 42.88 0 21.76 0 0 Z " fill="#FCFBFB" transform="translate(0,0)"/>
<path d="M0 0 C2.64 0 5.28 0 8 0 C8 2.31 8 4.62 8 7 C11.3 7 14.6 7 18 7 C18 9.64 18 12.28 18 15 C20.97 15 23.94 15 27 15 C27 17.31 27 19.62 27 22 C30.96 22 34.92 22 39 22 C39 19.69 39 17.38 39 15 C41.97 15 44.94 15 48 15 C48 12.69 48 10.38 48 8 C50.97 8 53.94 8 57 8 C57 5.36 57 2.72 57 0 C59.97 0 62.94 0 66 0 C66 2.64 66 5.28 66 8 C63.36 8 60.72 8 58 8 C58 10.64 58 13.28 58 16 C55.03 16 52.06 16 49 16 C49 18.31 49 20.62 49 23 C46.03 23 43.06 23 40 23 C40 25.31 40 27.62 40 30 C42.64 30 45.28 30 48 30 C48 32.64 48 35.28 48 38 C51.3 38 54.6 38 58 38 C58 40.31 58 42.62 58 45 C60.64 45 63.28 45 66 45 C66 47.64 66 50.28 66 53 C63.03 53 60.06 53 57 53 C57 50.69 57 48.38 57 46 C53.7 46 50.4 46 47 46 C47 43.36 47 40.72 47 38 C44.36 38 41.72 38 39 38 C39 35.69 39 33.38 39 31 C35.04 31 31.08 31 27 31 C27 33.31 27 35.62 27 38 C24.03 38 21.06 38 18 38 C18 40.64 18 43.28 18 46 C14.7 46 11.4 46 8 46 C8 48.31 8 50.62 8 53 C5.36 53 2.72 53 0 53 C0 50.36 0 47.72 0 45 C2.64 45 5.28 45 8 45 C8 42.69 8 40.38 8 38 C10.97 38 13.94 38 17 38 C17 35.36 17 32.72 17 30 C19.97 30 22.94 30 26 30 C26 27.36 26 24.72 26 22 C23.03 22 20.06 22 17 22 C17 19.69 17 17.38 17 15 C14.03 15 11.06 15 8 15 C8 12.69 8 10.38 8 8 C5.36 8 2.72 8 0 8 C0 5.36 0 2.72 0 0 Z " fill="#CA91B3" transform="translate(10,5)"/>
<path d="M0 0 C2.64 0 5.28 0 8 0 C8 2.31 8 4.62 8 7 C11.3 7 14.6 7 18 7 C18 9.64 18 12.28 18 15 C20.64 15 23.28 15 26 15 C26 17.31 26 19.62 26 22 C23.03 22 20.06 22 17 22 C17 19.69 17 17.38 17 15 C14.03 15 11.06 15 8 15 C8 12.69 8 10.38 8 8 C5.36 8 2.72 8 0 8 C0 5.36 0 2.72 0 0 Z " fill="#C2679D" transform="translate(10,5)"/>
<path d="M0 0 C3.96 0 7.92 0 12 0 C12 2.64 12 5.28 12 8 C8.04 8 4.08 8 0 8 C0 5.36 0 2.72 0 0 Z " fill="#B94784" transform="translate(37,27)"/>
<path d="M0 0 C2.64 0 5.28 0 8 0 C8 2.64 8 5.28 8 8 C5.36 8 2.72 8 0 8 C0 5.36 0 2.72 0 0 Z " fill="#9F72A9" transform="translate(10,50)"/>
<path d="M0 0 C2.64 0 5.28 0 8 0 C8 2.64 8 5.28 8 8 C5.36 8 2.72 8 0 8 C0 5.36 0 2.72 0 0 Z " fill="#8969A9" transform="translate(10,5)"/>
<path d="M0 0 C2.64 0 5.28 0 8 0 C8 2.64 8 5.28 8 8 C5.36 8 2.72 8 0 8 C0 5.36 0 2.72 0 0 Z " fill="#8960B0" transform="translate(68,5)"/>
<path d="M0 0 C2.97 0 5.94 0 9 0 C9 2.31 9 4.62 9 7 C6.03 7 3.06 7 0 7 C0 4.69 0 2.38 0 0 Z " fill="#C7457C" transform="translate(18,43)"/>
<path d="M0 0 C2.97 0 5.94 0 9 0 C9 2.31 9 4.62 9 7 C6.03 7 3.06 7 0 7 C0 4.69 0 2.38 0 0 Z " fill="#B44F91" transform="translate(58,43)"/>
<path d="M0 0 C2.97 0 5.94 0 9 0 C9 2.31 9 4.62 9 7 C6.03 7 3.06 7 0 7 C0 4.69 0 2.38 0 0 Z " fill="#B2528F" transform="translate(49,20)"/>
<path d="M0 0 C2.97 0 5.94 0 9 0 C9 2.31 9 4.62 9 7 C6.03 7 3.06 7 0 7 C0 4.69 0 2.38 0 0 Z " fill="#AC4C8D" transform="translate(18,13)"/>
<path d="M0 0 C2.97 0 5.94 0 9 0 C9 2.31 9 4.62 9 7 C6.03 7 3.06 7 0 7 C0 4.69 0 2.38 0 0 Z " fill="#B5579A" transform="translate(58,13)"/>
<path d="M0 0 C2.64 0 5.28 0 8 0 C8 2.31 8 4.62 8 7 C5.36 7 2.72 7 0 7 C0 4.69 0 2.38 0 0 Z " fill="#CC4B80" transform="translate(28,36)"/>
<path d="M0 0 C2.31 0 4.62 0 7 0 C7 2.31 7 4.62 7 7 C4.69 7 2.38 7 0 7 C0 4.69 0 2.38 0 0 Z " fill="#8959A5" transform="translate(68,50)"/>
<path d="M0 0 C1.32 0 2.64 0 4 0 C4 1.98 4 3.96 4 6 C1.03 6 -1.94 6 -5 6 C-5 5.67 -5 5.34 -5 5 C-3.35 5 -1.7 5 0 5 C0 3.35 0 1.7 0 0 Z " fill="#B75792" transform="translate(54,37)"/>
<path d="M0 0 C0.66 0.66 1.32 1.32 2 2 C2.99 1.67 3.98 1.34 5 1 C5 2.32 5 3.64 5 5 C2.69 5 0.38 5 -2 5 C-1.34 3.35 -0.68 1.7 0 0 Z " fill="#B33E7F" transform="translate(44,30)"/>
<path d="M0 0 C0.66 0 1.32 0 2 0 C2 2.31 2 4.62 2 7 C0.02 7 -1.96 7 -4 7 C-3.34 6.401875 -2.68 5.80375 -2 5.1875 C0.3373846 3.12498166 0.3373846 3.12498166 0 0 Z " fill="#AC4994" transform="translate(65,43)"/>
<path d="M0 0 C1.32 0 2.64 0 4 0 C4 0.99 4 1.98 4 3 C3.34 3 2.68 3 2 3 C1.67 3.66 1.34 4.32 1 5 C3.64 5 6.28 5 9 5 C9 5.33 9 5.66 9 6 C6.03 6 3.06 6 0 6 C0 4.02 0 2.04 0 0 Z " fill="#B15F97" transform="translate(18,14)"/>
<path d="M0 0 C0 2.31 0 4.62 0 7 C-1.32 6.67 -2.64 6.34 -4 6 C-3.34 6 -2.68 6 -2 6 C-2 5.34 -2 4.68 -2 4 C-2.66 3.67 -3.32 3.34 -4 3 C-4 2.34 -4 1.68 -4 1 C-2 0 -2 0 0 0 Z " fill="#7C59A1" transform="translate(18,5)"/>
<path d="M0 0 C2.31 0 4.62 0 7 0 C7 2.64 7 5.28 7 8 C6.67 8 6.34 8 6 8 C6 6.02 6 4.04 6 2 C4.68 2.33 3.36 2.66 2 3 C2 2.34 2 1.68 2 1 C1.34 0.67 0.68 0.34 0 0 Z " fill="#9579B5" transform="translate(69,5)"/>
<path d="M0 0 C0.66 0 1.32 0 2 0 C2 2.31 2 4.62 2 7 C0.68 6.67 -0.64 6.34 -2 6 C-1.34 6 -0.68 6 0 6 C0 5.34 0 4.68 0 4 C-0.66 3.67 -1.32 3.34 -2 3 C-1.34 2.01 -0.68 1.02 0 0 Z " fill="#9560A1" transform="translate(16,50)"/>
</svg>
